<svg xmlns="http://www.w3.org/2000/svg" xmlns:v="https://svgstorm.com"
viewBox = "0 0 256 224"
width="256"
height="224">
<g fill="None" fill-opacity="0.0" stroke="#000000" stroke-opacity="0.00" stroke-width="0.3"><path d="
M 0.00 32.00 
C 5.33 32.00 10.67 32.00 16.00 32.00
C 16.00 42.67 16.00 53.33 16.00 64.00
C 10.67 64.00 5.33 64.00 0.00 64.00
L 0.00 80.00
C 5.33 80.00 10.67 80.00 16.00 80.00
C 16.00 90.67 16.00 101.33 16.00 112.00
C 10.67 112.00 5.33 112.00 0.00 112.00
L 0.00 128.00
C 5.33 128.00 10.67 128.00 16.00 128.00
C 16.00 138.67 16.00 149.33 16.00 160.00
C 10.67 160.00 5.33 160.00 0.00 160.00
L 0.00 176.00
C 5.33 176.00 10.67 176.00 16.00 176.00
C 16.00 186.67 16.00 197.33 16.00 208.00
C 10.67 208.00 5.33 208.00 0.00 208.00
L 0.00 224.00
L 32.00 224.00
C 32.00 213.33 32.00 202.67 32.00 192.00
C 37.33 192.00 42.67 192.00 48.00 192.00
C 48.00 197.33 48.00 202.67 48.00 208.00
C 53.33 208.00 58.67 208.00 64.00 208.00
C 64.00 202.67 64.00 197.33 64.00 192.00
C 74.67 192.00 85.33 192.00 96.00 192.00
C 96.00 186.67 96.00 181.33 96.00 176.00
C 74.67 176.00 53.33 176.00 32.00 176.00
C 32.00 165.33 32.00 154.67 32.00 144.00
C 37.33 144.00 42.67 144.00 48.00 144.00
C 48.00 149.33 48.00 154.67 48.00 160.00
C 53.33 160.00 58.67 160.00 64.00 160.00
C 64.00 154.67 64.00 149.33 64.00 144.00
C 74.67 144.00 85.33 144.00 96.00 144.00
C 96.00 138.67 96.00 133.33 96.00 128.00
C 74.67 128.00 53.33 128.00 32.00 128.00
C 32.00 117.33 32.00 106.67 32.00 96.00
C 37.33 96.00 42.67 96.00 48.00 96.00
C 48.00 101.33 48.00 106.67 48.00 112.00
C 53.33 112.00 58.67 112.00 64.00 112.00
C 64.00 106.67 64.00 101.33 64.00 96.00
C 74.67 96.00 85.33 96.00 96.00 96.00
C 96.00 90.67 96.00 85.33 96.00 80.00
C 74.67 80.00 53.33 80.00 32.00 80.00
C 32.00 69.33 32.00 58.67 32.00 48.00
C 37.33 48.00 42.67 48.00 48.00 48.00
C 48.00 53.33 48.00 58.67 48.00 64.00
C 53.33 64.00 58.67 64.00 64.00 64.00
C 64.00 58.67 64.00 53.33 64.00 48.00
C 74.67 48.00 85.33 48.00 96.00 48.00
C 96.00 42.67 96.00 37.33 96.00 32.00
C 101.33 32.00 106.67 32.00 112.00 32.00
C 112.00 26.67 112.00 21.33 112.00 16.00
C 122.67 16.00 133.33 16.00 144.00 16.00
C 144.00 10.67 144.00 5.33 144.00 0.00
L 0.00 0.00
L 0.00 32.00 Z"/>
</g>
<g fill="None" fill-opacity="0.0" stroke="#000000" stroke-opacity="1.00" stroke-width="0.3"><path d="
M 96.00 96.00 
C 96.00 106.67 96.00 117.33 96.00 128.00
C 96.00 133.33 96.00 138.67 96.00 144.00
C 96.00 154.67 96.00 165.33 96.00 176.00
C 96.00 181.33 96.00 186.67 96.00 192.00
C 85.33 192.00 74.67 192.00 64.00 192.00
C 64.00 197.33 64.00 202.67 64.00 208.00
C 58.67 208.00 53.33 208.00 48.00 208.00
C 48.00 202.67 48.00 197.33 48.00 192.00
C 42.67 192.00 37.33 192.00 32.00 192.00
C 32.00 202.67 32.00 213.33 32.00 224.00
L 128.00 224.00
C 128.00 218.67 128.00 213.33 128.00 208.00
C 138.67 208.00 149.33 208.00 160.00 208.00
C 160.00 202.67 160.00 197.33 160.00 192.00
C 176.00 192.00 192.00 192.00 208.00 192.00
C 208.00 197.33 208.00 202.67 208.00 208.00
C 218.67 208.00 229.33 208.00 240.00 208.00
C 240.00 213.33 240.00 218.67 240.00 224.00
L 256.00 224.00
L 256.00 32.00
C 250.67 32.00 245.33 32.00 240.00 32.00
C 240.00 26.67 240.00 21.33 240.00 16.00
C 229.33 16.00 218.67 16.00 208.00 16.00
C 208.00 10.67 208.00 5.33 208.00 0.00
L 144.00 0.00
C 144.00 5.33 144.00 10.67 144.00 16.00
C 133.33 16.00 122.67 16.00 112.00 16.00
C 112.00 21.33 112.00 26.67 112.00 32.00
C 106.67 32.00 101.33 32.00 96.00 32.00
C 96.00 37.33 96.00 42.67 96.00 48.00
C 85.33 48.00 74.67 48.00 64.00 48.00
C 64.00 53.33 64.00 58.67 64.00 64.00
C 58.67 64.00 53.33 64.00 48.00 64.00
C 48.00 58.67 48.00 53.33 48.00 48.00
C 42.67 48.00 37.33 48.00 32.00 48.00
C 32.00 58.67 32.00 69.33 32.00 80.00
C 53.33 80.00 74.67 80.00 96.00 80.00
C 96.00 85.33 96.00 90.67 96.00 96.00
M 160.00 32.00 
C 160.00 48.00 160.00 64.00 160.00 80.00
C 154.67 80.00 149.33 80.00 144.00 80.00
C 144.00 85.33 144.00 90.67 144.00 96.00
C 138.67 96.00 133.33 96.00 128.00 96.00
C 128.00 80.00 128.00 64.00 128.00 48.00
C 133.33 48.00 138.67 48.00 144.00 48.00
C 144.00 42.67 144.00 37.33 144.00 32.00
C 149.33 32.00 154.67 32.00 160.00 32.00
M 208.00 32.00 
C 208.00 37.33 208.00 42.67 208.00 48.00
C 213.33 48.00 218.67 48.00 224.00 48.00
C 224.00 64.00 224.00 80.00 224.00 96.00
C 218.67 96.00 213.33 96.00 208.00 96.00
C 208.00 90.67 208.00 85.33 208.00 80.00
C 202.67 80.00 197.33 80.00 192.00 80.00
C 192.00 64.00 192.00 48.00 192.00 32.00
C 197.33 32.00 202.67 32.00 208.00 32.00
M 160.00 112.00 
C 160.00 128.00 160.00 144.00 160.00 160.00
C 154.67 160.00 149.33 160.00 144.00 160.00
C 144.00 165.33 144.00 170.67 144.00 176.00
C 138.67 176.00 133.33 176.00 128.00 176.00
C 128.00 160.00 128.00 144.00 128.00 128.00
C 133.33 128.00 138.67 128.00 144.00 128.00
C 144.00 122.67 144.00 117.33 144.00 112.00
C 149.33 112.00 154.67 112.00 160.00 112.00
M 224.00 128.00 
C 224.00 144.00 224.00 160.00 224.00 176.00
C 218.67 176.00 213.33 176.00 208.00 176.00
C 208.00 170.67 208.00 165.33 208.00 160.00
C 202.67 160.00 197.33 160.00 192.00 160.00
C 192.00 144.00 192.00 128.00 192.00 112.00
C 197.33 112.00 202.67 112.00 208.00 112.00
C 213.33 112.00 218.67 112.00 224.00 112.00
C 224.00 117.33 224.00 122.67 224.00 128.00 Z"/>
</g>
<g fill="None" fill-opacity="0.0" stroke="#000000" stroke-opacity="0.00" stroke-width="0.3"><path d="
M 256.00 32.00 
L 256.00 0.00
L 208.00 0.00
C 208.00 5.33 208.00 10.67 208.00 16.00
C 218.67 16.00 229.33 16.00 240.00 16.00
C 240.00 21.33 240.00 26.67 240.00 32.00
C 245.33 32.00 250.67 32.00 256.00 32.00 Z"/>
</g>
<g fill="None" fill-opacity="0.0" stroke="#000000" stroke-opacity="1.00" stroke-width="0.3"><path d="
M 0.00 64.00 
C 5.33 64.00 10.67 64.00 16.00 64.00
C 16.00 53.33 16.00 42.67 16.00 32.00
C 10.67 32.00 5.33 32.00 0.00 32.00
L 0.00 64.00 Z"/>
</g>
<g fill="None" fill-opacity="0.0" stroke="#F7262B" stroke-opacity="1.00" stroke-width="0.3"><path d="
M 160.00 32.00 
C 154.67 32.00 149.33 32.00 144.00 32.00
C 144.00 37.33 144.00 42.67 144.00 48.00
C 138.67 48.00 133.33 48.00 128.00 48.00
C 128.00 64.00 128.00 80.00 128.00 96.00
C 133.33 96.00 138.67 96.00 144.00 96.00
C 144.00 90.67 144.00 85.33 144.00 80.00
C 149.33 80.00 154.67 80.00 160.00 80.00
C 160.00 64.00 160.00 48.00 160.00 32.00 Z"/>
</g>
<g fill="None" fill-opacity="0.0" stroke="#00FF2C" stroke-opacity="1.00" stroke-width="0.3"><path d="
M 208.00 32.00 
C 202.67 32.00 197.33 32.00 192.00 32.00
C 192.00 48.00 192.00 64.00 192.00 80.00
C 197.33 80.00 202.67 80.00 208.00 80.00
C 208.00 85.33 208.00 90.67 208.00 96.00
C 213.33 96.00 218.67 96.00 224.00 96.00
C 224.00 80.00 224.00 64.00 224.00 48.00
C 218.67 48.00 213.33 48.00 208.00 48.00
C 208.00 42.67 208.00 37.33 208.00 32.00 Z"/>
</g>
<g fill="None" fill-opacity="0.0" stroke="#FD2C22" stroke-opacity="1.00" stroke-width="0.3"><path d="
M 0.00 112.00 
C 5.33 112.00 10.67 112.00 16.00 112.00
C 16.00 101.33 16.00 90.67 16.00 80.00
C 10.67 80.00 5.33 80.00 0.00 80.00
L 0.00 112.00 Z"/>
</g>
<g fill="None" fill-opacity="0.0" stroke="#FD2822" stroke-opacity="1.00" stroke-width="0.3"><path d="
M 96.00 128.00 
C 96.00 117.33 96.00 106.67 96.00 96.00
C 85.33 96.00 74.67 96.00 64.00 96.00
C 64.00 101.33 64.00 106.67 64.00 112.00
C 58.67 112.00 53.33 112.00 48.00 112.00
C 48.00 106.67 48.00 101.33 48.00 96.00
C 42.67 96.00 37.33 96.00 32.00 96.00
C 32.00 106.67 32.00 117.33 32.00 128.00
C 53.33 128.00 74.67 128.00 96.00 128.00 Z"/>
</g>
<g fill="None" fill-opacity="0.0" stroke="#2A00FE" stroke-opacity="1.00" stroke-width="0.3"><path d="
M 160.00 112.00 
C 154.67 112.00 149.33 112.00 144.00 112.00
C 144.00 117.33 144.00 122.67 144.00 128.00
C 138.67 128.00 133.33 128.00 128.00 128.00
C 128.00 144.00 128.00 160.00 128.00 176.00
C 133.33 176.00 138.67 176.00 144.00 176.00
C 144.00 170.67 144.00 165.33 144.00 160.00
C 149.33 160.00 154.67 160.00 160.00 160.00
C 160.00 144.00 160.00 128.00 160.00 112.00 Z"/>
</g>
<g fill="None" fill-opacity="0.0" stroke="#FEF407" stroke-opacity="1.00" stroke-width="0.3"><path d="
M 224.00 128.00 
C 218.67 128.00 213.33 128.00 208.00 128.00
C 208.00 122.67 208.00 117.33 208.00 112.00
C 202.67 112.00 197.33 112.00 192.00 112.00
C 192.00 128.00 192.00 144.00 192.00 160.00
C 197.33 160.00 202.67 160.00 208.00 160.00
C 208.00 165.33 208.00 170.67 208.00 176.00
C 213.33 176.00 218.67 176.00 224.00 176.00
C 224.00 160.00 224.00 144.00 224.00 128.00 Z"/>
</g>
<g fill="None" fill-opacity="0.0" stroke="#010011" stroke-opacity="1.00" stroke-width="0.3"><path d="
M 224.00 128.00 
C 224.00 122.67 224.00 117.33 224.00 112.00
C 218.67 112.00 213.33 112.00 208.00 112.00
C 208.00 117.33 208.00 122.67 208.00 128.00
C 213.33 128.00 218.67 128.00 224.00 128.00 Z"/>
</g>
<g fill="None" fill-opacity="0.0" stroke="#2700F4" stroke-opacity="1.00" stroke-width="0.3"><path d="
M 0.00 160.00 
C 5.33 160.00 10.67 160.00 16.00 160.00
C 16.00 149.33 16.00 138.67 16.00 128.00
C 10.67 128.00 5.33 128.00 0.00 128.00
L 0.00 160.00 Z"/>
</g>
<g fill="None" fill-opacity="0.0" stroke="#2C02FB" stroke-opacity="1.00" stroke-width="0.3"><path d="
M 96.00 176.00 
C 96.00 165.33 96.00 154.67 96.00 144.00
C 85.33 144.00 74.67 144.00 64.00 144.00
C 64.00 149.33 64.00 154.67 64.00 160.00
C 58.67 160.00 53.33 160.00 48.00 160.00
C 48.00 154.67 48.00 149.33 48.00 144.00
C 42.67 144.00 37.33 144.00 32.00 144.00
C 32.00 154.67 32.00 165.33 32.00 176.00
C 53.33 176.00 74.67 176.00 96.00 176.00 Z"/>
</g>
<g fill="None" fill-opacity="0.0" stroke="#000000" stroke-opacity="1.00" stroke-width="0.3"><path d="
M 0.00 208.00 
C 5.33 208.00 10.67 208.00 16.00 208.00
C 16.00 197.33 16.00 186.67 16.00 176.00
C 10.67 176.00 5.33 176.00 0.00 176.00
L 0.00 208.00 Z"/>
</g>
<g fill="None" fill-opacity="0.0" stroke="#000000" stroke-opacity="0.00" stroke-width="0.3"><path d="
M 128.00 224.00 
L 240.00 224.00
C 240.00 218.67 240.00 213.33 240.00 208.00
C 229.33 208.00 218.67 208.00 208.00 208.00
C 208.00 202.67 208.00 197.33 208.00 192.00
C 192.00 192.00 176.00 192.00 160.00 192.00
C 160.00 197.33 160.00 202.67 160.00 208.00
C 149.33 208.00 138.67 208.00 128.00 208.00
C 128.00 213.33 128.00 218.67 128.00 224.00 Z"/>
</g>
<g fill="#000000" fill-opacity="0.00" stroke="None">
<path d="
M 0.00 32.00 
C 5.33 32.00 10.67 32.00 16.00 32.00
C 16.00 42.67 16.00 53.33 16.00 64.00
C 10.67 64.00 5.33 64.00 0.00 64.00
L 0.00 80.00
C 5.33 80.00 10.67 80.00 16.00 80.00
C 16.00 90.67 16.00 101.33 16.00 112.00
C 10.67 112.00 5.33 112.00 0.00 112.00
L 0.00 128.00
C 5.33 128.00 10.67 128.00 16.00 128.00
C 16.00 138.67 16.00 149.33 16.00 160.00
C 10.67 160.00 5.33 160.00 0.00 160.00
L 0.00 176.00
C 5.33 176.00 10.67 176.00 16.00 176.00
C 16.00 186.67 16.00 197.33 16.00 208.00
C 10.67 208.00 5.33 208.00 0.00 208.00
L 0.00 224.00
L 32.00 224.00
C 32.00 213.33 32.00 202.67 32.00 192.00
C 37.33 192.00 42.67 192.00 48.00 192.00
C 48.00 197.33 48.00 202.67 48.00 208.00
C 53.33 208.00 58.67 208.00 64.00 208.00
C 64.00 202.67 64.00 197.33 64.00 192.00
C 74.67 192.00 85.33 192.00 96.00 192.00
C 96.00 186.67 96.00 181.33 96.00 176.00
C 74.67 176.00 53.33 176.00 32.00 176.00
C 32.00 165.33 32.00 154.67 32.00 144.00
C 37.33 144.00 42.67 144.00 48.00 144.00
C 48.00 149.33 48.00 154.67 48.00 160.00
C 53.33 160.00 58.67 160.00 64.00 160.00
C 64.00 154.67 64.00 149.33 64.00 144.00
C 74.67 144.00 85.33 144.00 96.00 144.00
C 96.00 138.67 96.00 133.33 96.00 128.00
C 74.67 128.00 53.33 128.00 32.00 128.00
C 32.00 117.33 32.00 106.67 32.00 96.00
C 37.33 96.00 42.67 96.00 48.00 96.00
C 48.00 101.33 48.00 106.67 48.00 112.00
C 53.33 112.00 58.67 112.00 64.00 112.00
C 64.00 106.67 64.00 101.33 64.00 96.00
C 74.67 96.00 85.33 96.00 96.00 96.00
C 96.00 90.67 96.00 85.33 96.00 80.00
C 74.67 80.00 53.33 80.00 32.00 80.00
C 32.00 69.33 32.00 58.67 32.00 48.00
C 37.33 48.00 42.67 48.00 48.00 48.00
C 48.00 53.33 48.00 58.67 48.00 64.00
C 53.33 64.00 58.67 64.00 64.00 64.00
C 64.00 58.67 64.00 53.33 64.00 48.00
C 74.67 48.00 85.33 48.00 96.00 48.00
C 96.00 42.67 96.00 37.33 96.00 32.00
C 101.33 32.00 106.67 32.00 112.00 32.00
C 112.00 26.67 112.00 21.33 112.00 16.00
C 122.67 16.00 133.33 16.00 144.00 16.00
C 144.00 10.67 144.00 5.33 144.00 0.00
L 0.00 0.00
L 0.00 32.00 Z"/>
</g>
<g fill="#000000" fill-opacity="1.00" stroke="None">
<path d="
M 96.00 96.00 
C 96.00 106.67 96.00 117.33 96.00 128.00
C 96.00 133.33 96.00 138.67 96.00 144.00
C 96.00 154.67 96.00 165.33 96.00 176.00
C 96.00 181.33 96.00 186.67 96.00 192.00
C 85.33 192.00 74.67 192.00 64.00 192.00
C 64.00 197.33 64.00 202.67 64.00 208.00
C 58.67 208.00 53.33 208.00 48.00 208.00
C 48.00 202.67 48.00 197.33 48.00 192.00
C 42.67 192.00 37.33 192.00 32.00 192.00
C 32.00 202.67 32.00 213.33 32.00 224.00
L 128.00 224.00
C 128.00 218.67 128.00 213.33 128.00 208.00
C 138.67 208.00 149.33 208.00 160.00 208.00
C 160.00 202.67 160.00 197.33 160.00 192.00
C 176.00 192.00 192.00 192.00 208.00 192.00
C 208.00 197.33 208.00 202.67 208.00 208.00
C 218.67 208.00 229.33 208.00 240.00 208.00
C 240.00 213.33 240.00 218.67 240.00 224.00
L 256.00 224.00
L 256.00 32.00
C 250.67 32.00 245.33 32.00 240.00 32.00
C 240.00 26.67 240.00 21.33 240.00 16.00
C 229.33 16.00 218.67 16.00 208.00 16.00
C 208.00 10.67 208.00 5.33 208.00 0.00
L 144.00 0.00
C 144.00 5.33 144.00 10.67 144.00 16.00
C 133.33 16.00 122.67 16.00 112.00 16.00
C 112.00 21.33 112.00 26.67 112.00 32.00
C 106.67 32.00 101.33 32.00 96.00 32.00
C 96.00 37.33 96.00 42.67 96.00 48.00
C 85.33 48.00 74.67 48.00 64.00 48.00
C 64.00 53.33 64.00 58.67 64.00 64.00
C 58.67 64.00 53.33 64.00 48.00 64.00
C 48.00 58.67 48.00 53.33 48.00 48.00
C 42.67 48.00 37.33 48.00 32.00 48.00
C 32.00 58.67 32.00 69.33 32.00 80.00
C 53.33 80.00 74.67 80.00 96.00 80.00
C 96.00 85.33 96.00 90.67 96.00 96.00
M 160.00 32.00 
C 160.00 48.00 160.00 64.00 160.00 80.00
C 154.67 80.00 149.33 80.00 144.00 80.00
C 144.00 85.33 144.00 90.67 144.00 96.00
C 138.67 96.00 133.33 96.00 128.00 96.00
C 128.00 80.00 128.00 64.00 128.00 48.00
C 133.33 48.00 138.67 48.00 144.00 48.00
C 144.00 42.67 144.00 37.33 144.00 32.00
C 149.33 32.00 154.67 32.00 160.00 32.00
M 208.00 32.00 
C 208.00 37.33 208.00 42.67 208.00 48.00
C 213.33 48.00 218.67 48.00 224.00 48.00
C 224.00 64.00 224.00 80.00 224.00 96.00
C 218.67 96.00 213.33 96.00 208.00 96.00
C 208.00 90.67 208.00 85.33 208.00 80.00
C 202.67 80.00 197.33 80.00 192.00 80.00
C 192.00 64.00 192.00 48.00 192.00 32.00
C 197.33 32.00 202.67 32.00 208.00 32.00
M 160.00 112.00 
C 160.00 128.00 160.00 144.00 160.00 160.00
C 154.67 160.00 149.33 160.00 144.00 160.00
C 144.00 165.33 144.00 170.67 144.00 176.00
C 138.67 176.00 133.33 176.00 128.00 176.00
C 128.00 160.00 128.00 144.00 128.00 128.00
C 133.33 128.00 138.67 128.00 144.00 128.00
C 144.00 122.67 144.00 117.33 144.00 112.00
C 149.33 112.00 154.67 112.00 160.00 112.00
M 224.00 128.00 
C 224.00 144.00 224.00 160.00 224.00 176.00
C 218.67 176.00 213.33 176.00 208.00 176.00
C 208.00 170.67 208.00 165.33 208.00 160.00
C 202.67 160.00 197.33 160.00 192.00 160.00
C 192.00 144.00 192.00 128.00 192.00 112.00
C 197.33 112.00 202.67 112.00 208.00 112.00
C 213.33 112.00 218.67 112.00 224.00 112.00
C 224.00 117.33 224.00 122.67 224.00 128.00 Z"/>
</g>
<g fill="#000000" fill-opacity="0.00" stroke="None">
<path d="
M 256.00 32.00 
L 256.00 0.00
L 208.00 0.00
C 208.00 5.33 208.00 10.67 208.00 16.00
C 218.67 16.00 229.33 16.00 240.00 16.00
C 240.00 21.33 240.00 26.67 240.00 32.00
C 245.33 32.00 250.67 32.00 256.00 32.00 Z"/>
</g>
<g fill="#000000" fill-opacity="1.00" stroke="None">
<path d="
M 0.00 64.00 
C 5.33 64.00 10.67 64.00 16.00 64.00
C 16.00 53.33 16.00 42.67 16.00 32.00
C 10.67 32.00 5.33 32.00 0.00 32.00
L 0.00 64.00 Z"/>
</g>
<g fill="#F7262B" fill-opacity="1.00" stroke="None">
<path d="
M 160.00 32.00 
C 154.67 32.00 149.33 32.00 144.00 32.00
C 144.00 37.33 144.00 42.67 144.00 48.00
C 138.67 48.00 133.33 48.00 128.00 48.00
C 128.00 64.00 128.00 80.00 128.00 96.00
C 133.33 96.00 138.67 96.00 144.00 96.00
C 144.00 90.67 144.00 85.33 144.00 80.00
C 149.33 80.00 154.67 80.00 160.00 80.00
C 160.00 64.00 160.00 48.00 160.00 32.00 Z"/>
</g>
<g fill="#00FF2C" fill-opacity="1.00" stroke="None">
<path d="
M 208.00 32.00 
C 202.67 32.00 197.33 32.00 192.00 32.00
C 192.00 48.00 192.00 64.00 192.00 80.00
C 197.33 80.00 202.67 80.00 208.00 80.00
C 208.00 85.33 208.00 90.67 208.00 96.00
C 213.33 96.00 218.67 96.00 224.00 96.00
C 224.00 80.00 224.00 64.00 224.00 48.00
C 218.67 48.00 213.33 48.00 208.00 48.00
C 208.00 42.67 208.00 37.33 208.00 32.00 Z"/>
</g>
<g fill="#FD2C22" fill-opacity="1.00" stroke="None">
<path d="
M 0.00 112.00 
C 5.33 112.00 10.67 112.00 16.00 112.00
C 16.00 101.33 16.00 90.67 16.00 80.00
C 10.67 80.00 5.33 80.00 0.00 80.00
L 0.00 112.00 Z"/>
</g>
<g fill="#FD2822" fill-opacity="1.00" stroke="None">
<path d="
M 96.00 128.00 
C 96.00 117.33 96.00 106.67 96.00 96.00
C 85.33 96.00 74.67 96.00 64.00 96.00
C 64.00 101.33 64.00 106.67 64.00 112.00
C 58.67 112.00 53.33 112.00 48.00 112.00
C 48.00 106.67 48.00 101.33 48.00 96.00
C 42.67 96.00 37.33 96.00 32.00 96.00
C 32.00 106.67 32.00 117.33 32.00 128.00
C 53.33 128.00 74.67 128.00 96.00 128.00 Z"/>
</g>
<g fill="#2A00FE" fill-opacity="1.00" stroke="None">
<path d="
M 160.00 112.00 
C 154.67 112.00 149.33 112.00 144.00 112.00
C 144.00 117.33 144.00 122.67 144.00 128.00
C 138.67 128.00 133.33 128.00 128.00 128.00
C 128.00 144.00 128.00 160.00 128.00 176.00
C 133.33 176.00 138.67 176.00 144.00 176.00
C 144.00 170.67 144.00 165.33 144.00 160.00
C 149.33 160.00 154.67 160.00 160.00 160.00
C 160.00 144.00 160.00 128.00 160.00 112.00 Z"/>
</g>
<g fill="#FEF407" fill-opacity="1.00" stroke="None">
<path d="
M 224.00 128.00 
C 218.67 128.00 213.33 128.00 208.00 128.00
C 208.00 122.67 208.00 117.33 208.00 112.00
C 202.67 112.00 197.33 112.00 192.00 112.00
C 192.00 128.00 192.00 144.00 192.00 160.00
C 197.33 160.00 202.67 160.00 208.00 160.00
C 208.00 165.33 208.00 170.67 208.00 176.00
C 213.33 176.00 218.67 176.00 224.00 176.00
C 224.00 160.00 224.00 144.00 224.00 128.00 Z"/>
</g>
<g fill="#010011" fill-opacity="1.00" stroke="None">
<path d="
M 224.00 128.00 
C 224.00 122.67 224.00 117.33 224.00 112.00
C 218.67 112.00 213.33 112.00 208.00 112.00
C 208.00 117.33 208.00 122.67 208.00 128.00
C 213.33 128.00 218.67 128.00 224.00 128.00 Z"/>
</g>
<g fill="#2700F4" fill-opacity="1.00" stroke="None">
<path d="
M 0.00 160.00 
C 5.33 160.00 10.67 160.00 16.00 160.00
C 16.00 149.33 16.00 138.67 16.00 128.00
C 10.67 128.00 5.33 128.00 0.00 128.00
L 0.00 160.00 Z"/>
</g>
<g fill="#2C02FB" fill-opacity="1.00" stroke="None">
<path d="
M 96.00 176.00 
C 96.00 165.33 96.00 154.67 96.00 144.00
C 85.33 144.00 74.67 144.00 64.00 144.00
C 64.00 149.33 64.00 154.67 64.00 160.00
C 58.67 160.00 53.33 160.00 48.00 160.00
C 48.00 154.67 48.00 149.33 48.00 144.00
C 42.67 144.00 37.33 144.00 32.00 144.00
C 32.00 154.67 32.00 165.33 32.00 176.00
C 53.33 176.00 74.67 176.00 96.00 176.00 Z"/>
</g>
<g fill="#000000" fill-opacity="1.00" stroke="None">
<path d="
M 0.00 208.00 
C 5.33 208.00 10.67 208.00 16.00 208.00
C 16.00 197.33 16.00 186.67 16.00 176.00
C 10.67 176.00 5.33 176.00 0.00 176.00
L 0.00 208.00 Z"/>
</g>
<g fill="#000000" fill-opacity="0.00" stroke="None">
<path d="
M 128.00 224.00 
L 240.00 224.00
C 240.00 218.67 240.00 213.33 240.00 208.00
C 229.33 208.00 218.67 208.00 208.00 208.00
C 208.00 202.67 208.00 197.33 208.00 192.00
C 192.00 192.00 176.00 192.00 160.00 192.00
C 160.00 197.33 160.00 202.67 160.00 208.00
C 149.33 208.00 138.67 208.00 128.00 208.00
C 128.00 213.33 128.00 218.67 128.00 224.00 Z"/>
</g>
</svg>